<?xml version="1.0" encoding="utf-8"?>
<!-- Generator: Adobe Illustrator 24.2.3, SVG Export Plug-In . SVG Version: 6.00 Build 0)  -->
<svg version="1.1" id="Layer_1" xmlns="http://www.w3.org/2000/svg" xmlns:xlink="http://www.w3.org/1999/xlink" x="0px" y="0px"
	 viewBox="0 0 632.2 158.7" style="enable-background:new 0 0 632.2 158.7;" xml:space="preserve">
<style type="text/css">
	.st0{fill:#0087CB;}
	.st1{fill:#333333;}
	.st2{font-family:'Boilover-SemiBold';}
	.st3{font-size:92.723px;}
	.st4{fill:#28B3E1;}
</style>
<g id="Layer_2_1_">
	<path class="st0" d="M64.8,61.9l18.5,31.9c3.3,5.6,8.7,15,12,20.6l18.5,31.9c3.3,5.7,8.6,5.6,11.9,0l9.6-16.8L95.6,61.9
		c-3.3-5.7-11.3-10.3-17.9-10.2h-7.2C64.1,51.6,61.5,56.2,64.8,61.9z"/>
	<text transform="matrix(1 0 0 1 206.2826 97.5381)" class="st1 st2 st3">nepseview</text>
	<path class="st0" d="M117.9,100.2L99.4,68.3c-3.3-5.6-8.7-15-12-20.6L68.9,15.8c-3.3-5.7-8.6-5.6-11.9,0l-9.6,16.8l39.6,67.7
		c3.3,5.7,11.3,10.3,17.9,10.2h7.2C118.5,110.5,121.2,105.9,117.9,100.2z"/>
	<path class="st4" d="M8.5,100.5l18.4-32c3.3-5.7,8.6-15,11.9-20.7l18.4-32c3.3-5.7,8.6-5.7,11.9,0l9.7,16.7l-39.3,67.9
		c-3.3,5.7-11.3,10.3-17.9,10.3h-7.2C7.8,110.8,5.2,106.2,8.5,100.5z"/>
	<path class="st4" d="M174.9,62.2l-18.4,32c-3.3,5.7-8.6,15-11.9,20.7l-18.4,32c-3.3,5.7-8.6,5.7-11.9,0l-9.7-16.7l39.4-67.9
		c3.3-5.7,11.3-10.3,17.9-10.3h7.2C175.4,51.9,178.1,56.5,174.9,62.2z"/>
</g>
</svg>
