<?xml version="1.0" encoding="utf-8"?>
<!-- Generator: Adobe Illustrator 24.2.3, SVG Export Plug-In . SVG Version: 6.00 Build 0)  -->
<svg version="1.1" id="Layer_1" xmlns="http://www.w3.org/2000/svg" xmlns:xlink="http://www.w3.org/1999/xlink" x="0px" y="0px"
	 viewBox="0 0 595 375" style="enable-background:new 0 0 595 375;" xml:space="preserve">
<style type="text/css">
	.st0{fill:url(#SVGID_1_);stroke:#000000;stroke-miterlimit:10;}
	.st1{fill:#0087CB;}
	.st2{fill:#FFFFFF;}
	.st3{font-family:'Boilover-SemiBold';}
	.st4{font-size:72.4247px;}
	.st5{fill:#28B3E1;}
</style>
<linearGradient id="SVGID_1_" gradientUnits="userSpaceOnUse" x1="299.0348" y1="376.5" x2="299.0348" y2="0.5" gradientTransform="matrix(1 0 0 -1 0 376)">
	<stop  offset="0" style="stop-color:#333333"/>
	<stop  offset="1" style="stop-color:#6B6D6D"/>
</linearGradient>
<rect x="1.5" y="-0.5" class="st0" width="595" height="376"/>
<g>
	<path class="st1" d="M99.8,172.3l14.4,24.9c2.5,4.4,6.8,11.7,9.3,16.1l14.4,24.9c2.5,4.5,6.7,4.4,9.3,0l7.5-13.1l-30.9-52.9
		c-2.5-4.5-8.9-8.1-14-8h-5.6C99.3,164.3,97.3,167.9,99.8,172.3z"/>
	<text transform="matrix(1 0 0 1 210.3684 200.1438)" class="st2 st3 st4">nepseview</text>
	<path class="st1" d="M141.3,202.2l-14.4-24.9c-2.5-4.4-6.8-11.7-9.3-16.1l-14.4-24.9c-2.5-4.5-6.7-4.4-9.3,0l-7.5,13.1l30.9,52.9
		c2.5,4.5,8.9,8.1,14,8h5.6C141.8,210.3,143.9,206.7,141.3,202.2z"/>
	<path class="st5" d="M55.9,202.4l14.4-25c2.5-4.5,6.7-11.7,9.3-16.1l14.4-25c2.5-4.5,6.7-4.5,9.3,0l7.6,13l-30.7,53
		c-2.5,4.5-8.9,8.1-14,8.1h-5.6C55.4,210.5,53.3,206.9,55.9,202.4z"/>
	<path class="st5" d="M185.8,172.6l-14.4,25c-2.5,4.5-6.7,11.7-9.3,16.1l-14.4,25c-2.5,4.5-6.7,4.5-9.3,0l-7.6-13l30.7-53
		c2.5-4.5,8.9-8.1,14-8.1h5.6C186.2,164.5,188.4,168.1,185.8,172.6z"/>
</g>
</svg>
