<?xml version="1.0" encoding="utf-8"?>
<!-- Generator: Adobe Illustrator 24.2.3, SVG Export Plug-In . SVG Version: 6.00 Build 0)  -->
<svg version="1.1" id="Layer_1" xmlns="http://www.w3.org/2000/svg" xmlns:xlink="http://www.w3.org/1999/xlink" x="0px" y="0px"
	 viewBox="0 0 1376.4 216.3" style="enable-background:new 0 0 1376.4 216.3;" xml:space="preserve">
<style type="text/css">
	.st0{fill:#0087CB;}
	.st1{fill:#333333;}
	.st2{font-family:'Boilover-SemiBold';}
	.st3{font-size:126.1163px;}
	.st4{fill:#28B3E1;}
</style>
<g id="Layer_2_1_">
	<path class="st0" d="M87.5,83.8l25.2,43.4c4.4,7.6,11.8,20.3,16.3,28l25.2,43.4c4.4,7.8,11.7,7.6,16.2,0l13.1-22.8l-53.9-92.1
		c-4.4-7.8-15.4-14.1-24.3-13.9h-9.7C86.7,69.7,83.1,76,87.5,83.8z"/>
	<text transform="matrix(1 0 0 1 279.9998 132.1684)" class="st1 st2 st3">nepseview</text>
	<path class="st0" d="M159.8,135.8l-25.2-43.4c-4.4-7.6-11.8-20.3-16.3-28L93.2,21c-4.4-7.8-11.7-7.6-16.2,0L64,43.8l53.9,92.1
		c4.4,7.8,15.4,14.1,24.3,13.9h9.7C160.7,149.9,164.2,143.6,159.8,135.8z"/>
	<path class="st4" d="M11,136.2l25-43.5c4.4-7.8,11.7-20.3,16.2-28.1l25-43.5c4.4-7.8,11.7-7.8,16.2,0l13.2,22.7L53.1,136
		c-4.4,7.8-15.4,14.1-24.3,14.1h-9.7C10.1,150.2,6.5,143.9,11,136.2z"/>
	<path class="st4" d="M237.2,84.1l-25,43.5c-4.4,7.8-11.7,20.3-16.2,28.1l-25,43.5c-4.4,7.8-11.7,7.8-16.2,0l-13.2-22.7l53.5-92.4
		c4.4-7.8,15.4-14.1,24.3-14.1h9.7C238,70.1,241.7,76.4,237.2,84.1z"/>
</g>
</svg>
